<?xml version="1.0" encoding="UTF-8"?>
<!-- Generator: visioncortex VTracer 0.6.4 -->
<svg version="1.1" xmlns="http://www.w3.org/2000/svg" width="334" height="334">
<path d="M0 0 C110.22 0 220.44 0 334 0 C334 110.22 334 220.44 334 334 C223.78 334 113.56 334 0 334 C0 223.78 0 113.56 0 0 Z " fill="#FCFCFC" transform="translate(0,0)"/>
<path d="M0 0 C0.91 -0.02 1.82 -0.04 2.75 -0.06 C6.91 -0.12 11.07 -0.17 15.24 -0.2 C17.43 -0.22 19.63 -0.25 21.83 -0.3 C24.99 -0.37 28.15 -0.39 31.31 -0.41 C32.29 -0.44 33.27 -0.47 34.29 -0.5 C36.9 -0.49 39.19 -0.42 41.73 0.21 C48.84 8 48.14 18.71 48.35 28.65 C48.37 29.36 48.39 30.07 48.4 30.8 C48.52 35.66 48.6 40.53 48.68 45.4 C48.73 48.4 48.8 51.4 48.86 54.4 C48.98 59.87 49.06 65.34 49.12 70.82 C49.15 72.98 49.19 75.14 49.24 77.3 C49.72 99.61 49.72 99.61 42.73 109.21 C42.28 109.84 41.84 110.46 41.38 111.11 C40.13 112.72 40.13 112.72 37.66 115.33 C36.85 116.22 36.03 117.11 35.19 118.03 C32.7 120.24 30.81 121.06 27.73 122.21 C21.92 126.38 16.67 131.14 14.73 138.21 C13.87 144.57 14.58 149.62 17.73 155.21 C20.54 157.52 20.54 157.52 23.73 157.02 C26.71 156.51 26.71 156.51 28.09 154.67 C30.38 152.63 31.91 152.9 34.91 153.02 C35.82 153.05 36.72 153.08 37.65 153.1 C38.33 153.14 39.02 153.17 39.73 153.21 C39.21 162.27 37.7 167.93 30.73 174.21 C27.1 176.63 26.01 176.84 21.73 176.21 C17.09 173.66 12.95 170.38 8.73 167.21 C8.73 167.86 8.73 168.5 8.74 169.17 C8.8 184.91 8.85 200.65 8.88 216.39 C8.9 224 8.92 231.61 8.95 239.22 C8.98 245.86 9 252.49 9.01 259.12 C9.01 262.64 9.02 266.15 9.04 269.66 C9.07 273.58 9.07 277.5 9.07 281.42 C9.08 282.59 9.09 283.76 9.1 284.96 C9.1 286.03 9.09 287.09 9.09 288.18 C9.09 289.11 9.09 290.04 9.1 290.99 C8.97 291.73 8.85 292.46 8.73 293.21 C5.58 295.31 4.7 295.48 1.09 295.6 C-0.36 295.66 -0.36 295.66 -1.83 295.71 C-2.9 295.74 -3.97 295.77 -5.07 295.8 C-6.21 295.84 -7.36 295.87 -8.53 295.91 C-24.3 296.38 -40.07 296.57 -55.85 296.74 C-58.55 296.77 -61.26 296.8 -63.97 296.84 C-109.07 297.36 -154.17 297.31 -199.27 297.21 C-199.29 283.88 -199.29 270.54 -199.27 257.21 C-199.27 256.28 -199.27 255.34 -199.27 254.38 C-199.26 243.29 -199.22 232.19 -199.14 221.09 C-199.11 216.37 -199.08 211.65 -199.08 206.93 C-199.07 202.24 -199.04 197.54 -199 192.85 C-198.99 191.09 -198.98 189.33 -198.99 187.57 C-199.02 171.33 -199.02 171.33 -194.73 165.52 C-193.27 164.21 -193.27 164.21 -191.24 163.19 C-188.18 161.66 -186.76 158.88 -184.96 156.08 C-181.79 151.3 -178.49 146.95 -174.49 142.79 C-172.97 141.14 -172.97 141.14 -173.27 138.21 C-174.59 137.55 -175.91 136.89 -177.27 136.21 C-177.27 135.55 -177.27 134.89 -177.27 134.21 C-178.26 134.21 -179.25 134.21 -180.27 134.21 C-182.27 131.9 -182.27 131.9 -184.27 129.21 C-184.71 128.79 -185.14 128.38 -185.59 127.95 C-188.57 124.88 -191.03 121.36 -193.6 117.95 C-196.11 114.63 -196.11 114.63 -198.96 111.61 C-203.67 106.57 -202.89 98.9 -202.71 92.45 C-202.05 83.21 -195.93 77.47 -189.52 71.38 C-186.76 68.71 -184.27 65.86 -181.78 62.94 C-180.33 61.27 -178.92 59.68 -177.27 58.21 C-176.61 58.21 -175.95 58.21 -175.27 58.21 C-168.52 44.99 -165.89 33.48 -170.15 18.9 C-171.53 14.63 -171.53 14.63 -174.27 11.21 C-176.45 10.93 -176.45 10.93 -178.84 11.02 C-179.64 11.03 -180.45 11.03 -181.28 11.04 C-183.27 10.99 -183.27 10.99 -184.27 12.21 C-184.4 14.95 -184.46 17.65 -184.46 20.4 C-184.48 21.53 -184.48 21.53 -184.5 22.69 C-184.51 27.3 -183.89 30.84 -182.27 35.21 C-182.27 39.92 -182.75 41.64 -185.96 45.15 C-189.51 47.36 -191.18 47.7 -195.27 47.21 C-199.99 40.87 -200.21 34.95 -199.27 27.21 C-198.46 24.48 -197.48 22 -196.27 19.42 C-195.1 17.01 -195.1 17.01 -194.4 13.4 C-192.74 8.7 -189.74 6.44 -185.27 4.21 C-177.87 3.52 -172.21 3.51 -166.27 8.21 C-159.83 15.54 -158.71 25.54 -159 34.96 C-160.33 50.74 -168.3 63.48 -178.27 75.31 C-180.42 78.42 -181.06 80.46 -181.27 84.21 C-180.78 84.7 -180.78 84.7 -180.27 85.21 C-180.36 87.38 -180.47 89.54 -180.59 91.71 C-180.66 98.9 -179.06 102.93 -174.27 108.21 C-173.43 109.01 -173.43 109.01 -172.57 109.82 C-171.27 111.21 -171.27 111.21 -171.27 113.21 C-170.55 112.71 -169.83 112.22 -169.09 111.71 C-166.12 110.13 -164.56 109.93 -161.27 110.21 C-160.61 111.86 -159.95 113.51 -159.27 115.21 C-158.48 102.41 -158.1 89.65 -158.01 76.82 C-157.99 73.75 -157.96 70.67 -157.94 67.59 C-157.87 59.98 -157.81 52.36 -157.75 44.74 C-157.7 38.25 -157.64 31.76 -157.58 25.27 C-157.55 22.23 -157.53 19.2 -157.51 16.17 C-157.5 14.33 -157.48 12.49 -157.46 10.65 C-157.46 9.8 -157.45 8.96 -157.45 8.09 C-157.39 2.32 -157.39 2.32 -156.27 1.21 C-153.92 1.14 -151.56 1.13 -149.21 1.15 C-147.92 1.16 -146.63 1.16 -145.3 1.17 C-144.3 1.19 -143.3 1.2 -142.27 1.21 C-140.94 21.07 -140.07 40.87 -140.09 60.77 C-140.08 61.66 -140.08 62.55 -140.08 63.46 C-140.08 72.09 -140.19 80.62 -141.02 89.21 C-141.56 95.65 -141.67 102.12 -141.84 108.58 C-141.86 109.36 -141.88 110.13 -141.9 110.92 C-142.47 132.35 -142.37 153.78 -142.27 175.21 C-140.43 171.69 -138.89 168.43 -137.99 164.56 C-137.79 163.71 -137.59 162.85 -137.38 161.98 C-137.18 161.08 -136.98 160.19 -136.77 159.27 C-136.56 158.34 -136.34 157.4 -136.12 156.44 C-135.49 153.7 -134.88 150.95 -134.27 148.21 C-134.12 147.52 -133.96 146.82 -133.8 146.11 C-131.85 137.25 -130.51 128.35 -129.36 119.35 C-128.78 114.95 -127.95 111.33 -126.27 107.21 C-125.88 104.03 -125.88 104.03 -125.9 100.71 C-125.87 99.61 -125.84 98.5 -125.81 97.36 C-126.37 93.56 -127.68 91.99 -130.27 89.21 C-132.14 86.54 -132.27 85.28 -132.27 81.96 C-130.98 77.1 -128.49 73.99 -125.27 70.21 C-120.44 70.62 -118.45 72.67 -115.27 76.21 C-115.34 75.37 -115.41 74.52 -115.48 73.65 C-116.14 65.01 -116.49 56.42 -116.62 47.75 C-116.66 45.79 -116.66 45.79 -116.69 43.78 C-116.74 41.05 -116.79 38.31 -116.83 35.57 C-116.89 32.06 -116.95 28.55 -117.02 25.03 C-117.08 21.67 -117.13 18.3 -117.19 14.94 C-117.21 13.68 -117.23 12.41 -117.26 11.11 C-117.28 9.38 -117.28 9.38 -117.31 7.61 C-117.33 6.59 -117.34 5.57 -117.36 4.51 C-117.27 2.21 -117.27 2.21 -116.27 1.21 C-113.58 1.14 -110.91 1.12 -108.21 1.15 C-107.45 1.15 -106.69 1.16 -105.91 1.16 C-104.03 1.17 -102.15 1.19 -100.27 1.21 C-98.63 34.54 -98.09 67.78 -98.15 101.15 C-98.15 102.56 -98.15 102.56 -98.15 104.01 C-98.18 115.74 -98.22 127.48 -98.27 139.21 C-91.34 138.88 -84.41 138.55 -77.27 138.21 C-77.36 135.85 -77.44 133.49 -77.53 131.06 C-77.79 123.22 -77.97 115.38 -78.1 107.54 C-78.18 102.79 -78.3 98.04 -78.48 93.29 C-78.65 88.7 -78.75 84.12 -78.79 79.52 C-78.82 77.78 -78.88 76.03 -78.96 74.29 C-79.6 60.96 -79.6 60.96 -75.69 56.34 C-72.4 53.38 -68.87 51.03 -65.09 48.74 C-59.74 45.47 -57.53 40.91 -55.27 35.21 C-54.94 34.57 -54.61 33.94 -54.27 33.28 C-51.92 28.7 -51.57 24.23 -52.27 19.21 C-53.9 15.57 -54.93 14.43 -58.27 12.21 C-61.77 11.63 -61.77 11.63 -65.27 12.21 C-67.28 14.58 -67.28 14.58 -68.27 17.21 C-67.28 17.54 -66.29 17.87 -65.27 18.21 C-65.85 21.08 -66.13 22.07 -68.27 24.21 C-71.08 24.57 -72.66 24.59 -75.09 23.08 C-76.93 20.17 -76.85 18.63 -76.27 15.21 C-73.83 11.08 -71.27 7.88 -67.27 5.21 C-62.41 4.49 -58.39 4.66 -53.96 6.83 C-51.01 9.44 -48.68 12.09 -46.27 15.21 C-46.2 14.07 -46.2 14.07 -46.12 12.91 C-46.05 11.91 -45.97 10.92 -45.9 9.9 C-45.83 8.91 -45.76 7.92 -45.69 6.91 C-45.27 4.21 -45.27 4.21 -43.27 1.21 C-40.3 1.21 -37.33 1.21 -34.27 1.21 C-34.27 46.42 -34.27 91.63 -34.27 138.21 C-26.02 138.21 -17.77 138.21 -9.27 138.21 C-9.29 134.34 -9.31 130.48 -9.34 126.49 C-9.4 113.72 -9.45 100.94 -9.48 88.16 C-9.5 80.42 -9.53 72.67 -9.57 64.93 C-9.61 58.17 -9.64 51.42 -9.65 44.67 C-9.65 41.09 -9.67 37.52 -9.7 33.94 C-9.73 29.95 -9.73 25.95 -9.73 21.96 C-9.74 20.78 -9.76 19.6 -9.77 18.39 C-9.73 10.92 -9.32 0.18 0 0 Z " fill="#050505" transform="translate(207.272705078125,18.791259765625)"/>
<path d="M0 0 C0.78 -0 1.56 -0.01 2.36 -0.01 C4.25 0.12 4.25 0.12 5.25 1.12 C6.45 9.06 6.42 16.99 6.46 25.01 C6.46 26.5 6.47 27.99 6.49 29.48 C6.51 33.49 6.53 37.51 6.55 41.53 C6.58 45.74 6.6 49.94 6.63 54.15 C6.68 62.11 6.72 70.07 6.77 78.03 C6.82 87.09 6.87 96.15 6.93 105.22 C7.04 123.85 7.15 142.49 7.25 161.12 C8.38 158.72 9.51 156.31 10.63 153.9 C10.95 153.22 11.27 152.54 11.6 151.84 C14.78 145.04 17.55 138.12 20.25 131.12 C20.68 130.08 21.11 129.03 21.55 127.95 C24.27 121.21 24.27 121.21 23.25 114.12 C22.92 113.8 22.59 113.47 22.25 113.12 C22.14 111.27 22.07 109.42 22 107.56 C21.63 102.23 20.56 99.08 17.21 94.94 C16.25 93.12 16.25 93.12 16.39 90.77 C17.41 87.63 18.81 85.11 20.56 82.31 C21.16 81.34 21.75 80.36 22.36 79.36 C22.99 78.62 23.61 77.88 24.25 77.12 C25.57 77.12 26.89 77.12 28.25 77.12 C29.57 79.77 30.89 82.41 32.25 85.12 C32.27 84.07 32.3 83.02 32.32 81.94 C32.53 72.07 32.75 62.19 32.98 52.32 C33.1 47.24 33.21 42.17 33.32 37.09 C33.43 32.19 33.54 27.3 33.65 22.4 C33.69 20.53 33.73 18.66 33.77 16.79 C33.83 14.17 33.89 11.56 33.95 8.95 C33.97 8.17 33.98 7.39 34 6.58 C34.14 1.24 34.14 1.24 35.25 0.12 C37.06 0 38.87 -0.05 40.69 -0.06 C41.68 -0.08 42.66 -0.09 43.68 -0.11 C46.25 0.12 46.25 0.12 48.25 2.12 C48.56 5.25 48.75 8.29 48.85 11.42 C48.89 12.4 48.93 13.38 48.97 14.39 C49.09 17.69 49.2 21 49.31 24.31 C49.35 25.47 49.39 26.62 49.44 27.81 C51.22 78.72 51.58 129.71 51.27 180.64 C51.25 183.36 51.23 186.08 51.22 188.79 C51.14 201.97 51.04 215.14 50.93 228.31 C50.89 232.79 50.86 237.27 50.83 241.75 C50.79 247.07 50.75 252.39 50.69 257.71 C50.67 259.69 50.66 261.67 50.65 263.65 C50.63 266.4 50.6 269.15 50.57 271.9 C50.57 272.69 50.56 273.48 50.56 274.3 C50.48 280.08 49.54 285.49 48.25 291.12 C43.52 292.88 39.54 293.24 34.48 293.19 C33.31 293.18 32.15 293.17 30.94 293.16 C29.61 293.14 29.61 293.14 28.25 293.12 C28.34 282.64 28.43 272.15 28.54 261.67 C28.59 256.8 28.63 251.92 28.67 247.05 C28.97 209.66 28.97 209.66 30.56 191.42 C31.58 179.26 31.47 167.13 31.38 154.94 C31.36 152.6 31.36 150.27 31.35 147.94 C31.33 142.33 31.29 136.73 31.25 131.12 C30.88 132.02 30.5 132.91 30.12 133.83 C28.72 137.18 27.32 140.53 25.92 143.88 C25.31 145.32 24.71 146.76 24.11 148.2 C23.23 150.29 22.36 152.38 21.48 154.46 C21.2 155.14 20.92 155.81 20.63 156.51 C18.81 160.85 16.9 165.12 14.83 169.34 C13.93 172.13 14.72 174.53 15.54 177.27 C16.53 181.24 16.9 185.24 17.31 189.31 C17.82 194.29 18.41 199.19 19.25 204.12 C19.71 207.57 19.95 210.7 19.25 214.12 C17.3 216.59 15.2 218.04 12.25 219.12 C10.58 219.15 8.92 219.16 7.25 219.12 C7.26 219.98 7.26 220.84 7.27 221.72 C7.33 229.78 7.38 237.84 7.41 245.91 C7.42 250.05 7.44 254.2 7.48 258.34 C7.51 262.34 7.53 266.34 7.53 270.34 C7.54 271.87 7.55 273.4 7.57 274.92 C7.59 277.06 7.59 279.2 7.59 281.34 C7.6 282.55 7.6 283.77 7.61 285.02 C7.22 288.38 6.61 289.76 4.25 292.12 C2.26 292.58 2.26 292.58 0.02 292.52 C-0.7 292.51 -1.43 292.5 -2.17 292.49 C-3.09 292.45 -4 292.41 -4.94 292.38 C-6.46 292.33 -7.99 292.29 -9.52 292.24 C-10.71 292.21 -10.71 292.21 -11.92 292.18 C-12.52 292.16 -13.13 292.14 -13.75 292.12 C-13.72 291.34 -13.69 290.56 -13.66 289.75 C-12.86 267.63 -12.58 245.53 -12.52 223.39 C-12.5 217.56 -12.48 211.73 -12.46 205.89 C-12.39 190.36 -12.33 174.82 -12.28 159.29 C-12.24 146.09 -12.19 132.88 -12.13 119.68 C-12.12 118.69 -12.12 117.7 -12.11 116.68 C-11.93 78.14 -11.08 39.64 -9.75 1.12 C-6.43 0.43 -3.39 -0.01 0 0 Z " fill="#060606" transform="translate(272.75,19.875)"/>
<path d="M0 0 C17.82 0 35.64 0 54 0 C54 5.61 54 11.22 54 17 C51 14 51 14 48.62 10.94 C45.04 6.93 42.84 6.17 37.56 5.69 C32.61 6.12 29.44 7.37 26.12 11.12 C24.56 15.12 24.75 18.76 25 23 C27.35 23.69 27.35 23.69 30 24 C33.12 22.37 33.12 22.37 33.69 19.88 C33.84 18.95 33.84 18.95 34 18 C33.01 17.67 32.02 17.34 31 17 C31.57 14.13 31.86 13.14 34 11 C37.26 10.56 39.8 10.29 42.72 12.02 C45.3 14.12 47.15 16.23 49 19 C49.52 25.07 48.59 29.11 45.88 34.5 C45.55 35.15 45.23 35.81 44.9 36.48 C40.41 45.39 35.63 50.68 27.29 56.34 C24.91 57.8 24.91 57.8 24 60 C23.88 62.37 23.82 64.72 23.81 67.1 C23.8 67.83 23.79 68.56 23.79 69.31 C23.77 70.9 23.75 72.48 23.74 74.07 C23.72 76.58 23.69 79.09 23.66 81.6 C23.59 87.82 23.53 94.05 23.47 100.28 C23.42 105.54 23.37 110.81 23.31 116.07 C23.28 118.55 23.26 121.03 23.24 123.5 C23.22 125.01 23.21 126.52 23.19 128.03 C23.19 128.73 23.18 129.42 23.18 130.14 C23.11 134.89 23.11 134.89 22 136 C14.41 136 6.82 136 -1 136 C-0.67 91.12 -0.34 46.24 0 0 Z " fill="#FBFBFA" transform="translate(108,165)"/>
<path d="M0 0 C8.25 0 16.5 0 25 0 C25 44.88 25 89.76 25 136 C16.75 136 8.5 136 0 136 C0 91.12 0 46.24 0 0 Z " fill="#F7F7F7" transform="translate(173,165)"/>
<path d="M0 0 C0.33 0 0.66 0 1 0 C0.93 1.09 0.86 2.17 0.79 3.29 C0.1 14.31 -0.16 25.28 -0.12 36.31 C-0.12 37.12 -0.12 37.93 -0.12 38.77 C-0.1 48.38 0.01 57.96 0.57 67.55 C1.1 76.97 1.33 86.39 1.56 95.81 C1.58 96.69 1.61 97.58 1.63 98.48 C2.03 115.32 2.11 132.16 2 149 C-5.59 149 -13.18 149 -21 149 C-21.07 134.33 -21.06 119.67 -21 105 C-21 104.3 -20.99 103.59 -20.99 102.87 C-20.96 93.41 -20.91 83.95 -20.81 74.48 C-20.78 70.47 -20.74 66.46 -20.73 62.44 C-20.71 58.61 -20.68 54.77 -20.63 50.93 C-20.62 49.51 -20.61 48.08 -20.61 46.65 C-20.6 36.14 -19.45 29.48 -12.25 21.5 C-6.86 15.04 -3.53 7.58 0 0 Z " fill="#FCFCFC" transform="translate(47,151)"/>
<path d="M0 0 C0.33 0 0.66 0 1 0 C1.1 14.75 1.07 29.45 0.43 44.18 C0.09 52.39 -0.11 60.59 -0.25 68.8 C-0.29 70.52 -0.29 70.52 -0.32 72.28 C-0.42 78.1 -0.52 83.92 -0.61 89.74 C-0.64 91.93 -0.68 94.12 -0.72 96.3 C-0.73 97.29 -0.75 98.27 -0.76 99.29 C-0.87 105.45 -1.25 111.56 -1.75 117.71 C-2.16 123.16 -2.35 128.62 -2.54 134.08 C-2.6 135.85 -2.6 135.85 -2.67 137.66 C-2.8 141.38 -2.93 145.09 -3.06 148.81 C-3.15 151.35 -3.25 153.9 -3.34 156.44 C-3.56 162.63 -3.78 168.81 -4 175 C-10.93 175 -17.86 175 -25 175 C-25.06 173.05 -25.11 171.1 -25.17 169.09 C-25.35 162.56 -25.54 156.02 -25.73 149.49 C-25.84 145.54 -25.96 141.59 -26.07 137.64 C-26.69 114.97 -26.69 114.97 -27.69 92.31 C-28.02 86.2 -28.11 80.12 -28 74 C-25.73 77.4 -24.96 80.58 -24.06 84.5 C-23.81 85.6 -23.81 85.6 -23.54 86.73 C-21.59 95.41 -20.28 104.2 -19 113 C-14.23 113.34 -14.23 113.34 -10.31 110.75 C-9.55 109.84 -8.79 108.94 -8 108 C-7.46 107.37 -6.91 106.75 -6.35 106.1 C-3.87 102.25 -5.17 98.31 -6 94 C-7.64 86.89 -7.64 86.89 -10 80 C-11.48 79.5 -11.48 79.5 -13 79 C-14.12 76.06 -14.12 76.06 -15 73 C-15.33 72.34 -15.66 71.68 -16 71 C-16.05 65.11 -14.99 59.6 -13.25 54 C-11.09 46.86 -9.67 39.64 -8.31 32.31 C-7.99 30.6 -7.99 30.6 -7.66 28.86 C-6.54 22.7 -5.7 16.65 -5.38 10.4 C-4.74 6.36 -2.62 3.09 0 0 Z " fill="#FBFBFB" transform="translate(92,125)"/>
<path d="M0 0 C8.91 0 17.82 0 27 0 C26.87 1.84 26.73 3.68 26.6 5.57 C26.47 7.55 26.33 9.53 26.21 11.51 C26.11 12.96 26.01 14.42 25.91 15.88 C25.19 26.51 24.97 37.05 25.1 47.71 C25.12 51.28 25.14 54.86 25.15 58.44 C25.18 60.8 25.22 63.17 25.29 65.53 C25.84 84.11 25.84 84.11 22.75 88.96 C19.35 92.56 15.32 94.64 11 97 C7.85 99.89 5.39 102.62 3.25 106.31 C2.52 107.56 1.78 108.79 1 110 C0.67 110 0.34 110 0 110 C0 73.7 0 37.4 0 0 Z " fill="#FAFAFA" transform="translate(215,35)"/>
<path d="M0 0 C0.33 0 0.66 0 1 0 C1 34.65 1 69.3 1 105 C-4.28 105 -9.56 105 -15 105 C-15.26 94.9 -15.52 84.8 -15.78 74.7 C-15.9 70.01 -16.02 65.32 -16.15 60.63 C-16.26 56.1 -16.38 51.58 -16.5 47.05 C-16.54 45.32 -16.58 43.6 -16.63 41.87 C-16.69 39.45 -16.75 37.03 -16.82 34.61 C-16.84 33.9 -16.85 33.18 -16.87 32.45 C-16.95 29.3 -17 26.15 -17 23 C-15.46 21.43 -15.46 21.43 -13.38 19.88 C-6.97 14.6 -3.5 7.39 0 0 Z " fill="#FCFCFC" transform="translate(160,52)"/>
<path d="M0 0 C0.33 0 0.66 0 1 0 C1 33.66 1 67.32 1 102 C-4.28 102 -9.56 102 -15 102 C-15.61 77 -16.21 52.01 -16 27 C-16.66 27 -17.32 27 -18 27 C-18 26.34 -18 25.68 -18 25 C-16.43 23.52 -16.43 23.52 -14.31 21.81 C-7.09 15.62 -3.69 8.69 0 0 Z " fill="#FCFCFC" transform="translate(160,199)"/>
<path d="M0 0 C0.33 0 0.66 0 1 0 C1.02 10.46 1.04 20.92 1.05 31.38 C1.06 36.24 1.06 41.1 1.08 45.95 C1.09 50.66 1.09 55.37 1.09 60.08 C1.1 61.85 1.1 63.63 1.11 65.41 C1.14 78.3 0.71 91.13 0 104 C-2.14 101.86 -2.43 100.87 -3 98 C-6.47 98.46 -9.67 98.89 -13 100 C-14.3 98.42 -15.59 96.84 -16.88 95.25 C-17.59 94.37 -18.31 93.49 -19.05 92.58 C-22.66 87.8 -23.22 85.12 -23.06 79.06 C-22.87 74.2 -22.87 74.2 -23.79 69.48 C-24.13 65.53 -21.7 63.15 -19.38 60.19 C-18.44 58.94 -17.51 57.69 -16.57 56.43 C-16.12 55.84 -15.68 55.24 -15.21 54.63 C-12.92 51.55 -10.9 48.34 -9 45 C-8.56 44.22 -8.12 43.45 -7.66 42.65 C-4.57 36.88 -2.92 31.47 -2 25 C-1.67 25 -1.34 25 -1 25 C-0.67 16.75 -0.34 8.5 0 0 Z " fill="#F6F6F6" transform="translate(49,32)"/>
<path d="M0 0 C0.33 0 0.66 0 1 0 C1.1 14.74 1.07 29.43 0.43 44.15 C-0.11 57.33 -0.32 70.51 -0.56 83.69 C-0.58 84.89 -0.61 86.08 -0.63 87.32 C-0.76 94.21 -0.88 101.11 -1 108 C-3.05 105.36 -4.39 103.42 -5.1 100.14 C-5.26 99.41 -5.42 98.69 -5.59 97.95 C-5.74 97.2 -5.9 96.46 -6.06 95.69 C-6.7 92.79 -7.34 89.89 -8 87 C-8.15 86.32 -8.3 85.64 -8.46 84.93 C-8.95 82.81 -8.95 82.81 -10 80 C-10.99 79.67 -11.98 79.34 -13 79 C-14.12 76.06 -14.12 76.06 -15 73 C-15.33 72.34 -15.66 71.68 -16 71 C-16.05 65.11 -14.99 59.6 -13.25 54 C-11.09 46.86 -9.67 39.64 -8.31 32.31 C-8.1 31.17 -7.88 30.03 -7.66 28.86 C-6.54 22.7 -5.7 16.65 -5.38 10.4 C-4.74 6.36 -2.62 3.09 0 0 Z " fill="#F1F1F1" transform="translate(92,125)"/>
<path d="M0 0 C0.99 0.33 1.98 0.66 3 1 C2.5 1.42 2.01 1.85 1.5 2.29 C-3.2 6.34 -7.67 10.55 -12 15 C-12 12 -12 12 -9.94 9.75 C-8.96 8.83 -7.98 7.92 -7 7 C-5.73 5.73 -4.45 4.46 -3.19 3.19 C-2.12 2.12 -1.06 1.06 0 0 Z " fill="#CECECE" transform="translate(236,139)"/>
</svg>
